<mxfile host="app.diagrams.net" modified="2023-05-31T11:48:37.302Z" agent="Mozilla/5.0 (Macintosh; Intel Mac OS X 10_15_7) AppleWebKit/605.1.15 (KHTML, like Gecko) Version/16.4 Safari/605.1.15" etag="IUDG7IfKo6D3BiA-Pfv2" version="21.3.4">
  <diagram name="Page-1" id="Kky85m9Q1DYvnpoJH5df">
    <mxGraphModel dx="2243" dy="1916" grid="1" gridSize="10" guides="1" tooltips="1" connect="1" arrows="1" fold="1" page="0" pageScale="1" pageWidth="827" pageHeight="1169" math="0" shadow="0">
      <root>
        <mxCell id="0" />
        <mxCell id="1" parent="0" />
        <mxCell id="4EYe7IXE-JR7Fc2so7gF-2" value="" style="strokeWidth=1;shadow=1;dashed=0;align=center;html=1;shape=mxgraph.mockup.containers.browserWindow;rSize=0;strokeColor2=#008cff;strokeColor3=#c4c4c4;mainText=,;recursiveResize=0;fillColor=#f5f5f5;strokeColor=#666666;fontColor=#333333;" parent="1" vertex="1">
          <mxGeometry width="1650" height="1170" as="geometry" />
        </mxCell>
        <mxCell id="4EYe7IXE-JR7Fc2so7gF-3" value="Pico" style="strokeWidth=1;shadow=0;dashed=0;align=center;html=1;shape=mxgraph.mockup.containers.anchor;fontSize=17;fontColor=#666666;align=left;whiteSpace=wrap;" parent="4EYe7IXE-JR7Fc2so7gF-2" vertex="1">
          <mxGeometry x="60" y="12" width="110" height="26" as="geometry" />
        </mxCell>
        <mxCell id="4EYe7IXE-JR7Fc2so7gF-4" value="https://www.pico.fr/signin/lost" style="strokeWidth=1;shadow=0;dashed=0;align=center;html=1;shape=mxgraph.mockup.containers.anchor;rSize=0;fontSize=17;fontColor=#666666;align=left;" parent="4EYe7IXE-JR7Fc2so7gF-2" vertex="1">
          <mxGeometry x="130" y="60" width="250" height="26" as="geometry" />
        </mxCell>
        <mxCell id="bM7IQYcvUBJuGgp6gzmL-14" style="edgeStyle=orthogonalEdgeStyle;rounded=0;orthogonalLoop=1;jettySize=auto;html=1;exitX=0;exitY=0.75;exitDx=0;exitDy=0;" parent="4EYe7IXE-JR7Fc2so7gF-2" source="bM7IQYcvUBJuGgp6gzmL-2" target="4EYe7IXE-JR7Fc2so7gF-2" edge="1">
          <mxGeometry relative="1" as="geometry" />
        </mxCell>
        <mxCell id="bM7IQYcvUBJuGgp6gzmL-2" value="" style="rounded=1;whiteSpace=wrap;html=1;fillColor=none;strokeColor=#000000;" parent="4EYe7IXE-JR7Fc2so7gF-2" vertex="1">
          <mxGeometry x="560.63" y="323.13" width="528.75" height="563.75" as="geometry" />
        </mxCell>
        <mxCell id="bM7IQYcvUBJuGgp6gzmL-3" value="&lt;font color=&quot;#000000&quot; style=&quot;font-size: 20px;&quot;&gt;PICO&lt;/font&gt;" style="ellipse;shape=cloud;whiteSpace=wrap;html=1;fillColor=#d0cee2;strokeColor=#56517e;" parent="4EYe7IXE-JR7Fc2so7gF-2" vertex="1">
          <mxGeometry x="741.25" y="360" width="167.5" height="80" as="geometry" />
        </mxCell>
        <mxCell id="bM7IQYcvUBJuGgp6gzmL-4" value="&lt;font style=&quot;font-size: 15px;&quot; face=&quot;Verdana&quot; color=&quot;#000000&quot;&gt;Saisissez votre adresse mail pour récupérer votre mot de passe.&lt;/font&gt;" style="text;strokeColor=none;align=center;fillColor=none;html=1;verticalAlign=middle;whiteSpace=wrap;rounded=0;" parent="4EYe7IXE-JR7Fc2so7gF-2" vertex="1">
          <mxGeometry x="675" y="500" width="300" height="50" as="geometry" />
        </mxCell>
        <mxCell id="bM7IQYcvUBJuGgp6gzmL-5" value="&lt;font face=&quot;Verdana&quot; size=&quot;1&quot; color=&quot;#000000&quot;&gt;&lt;span style=&quot;font-size: 22px;&quot;&gt;Trouvez votre mot de passe&lt;/span&gt;&lt;/font&gt;" style="text;strokeColor=none;align=center;fillColor=none;html=1;verticalAlign=middle;whiteSpace=wrap;rounded=0;" parent="4EYe7IXE-JR7Fc2so7gF-2" vertex="1">
          <mxGeometry x="642.5" y="460" width="365" height="30" as="geometry" />
        </mxCell>
        <mxCell id="bM7IQYcvUBJuGgp6gzmL-6" style="edgeStyle=orthogonalEdgeStyle;rounded=0;orthogonalLoop=1;jettySize=auto;html=1;" parent="4EYe7IXE-JR7Fc2so7gF-2" source="bM7IQYcvUBJuGgp6gzmL-2" target="bM7IQYcvUBJuGgp6gzmL-2" edge="1">
          <mxGeometry relative="1" as="geometry" />
        </mxCell>
        <mxCell id="bM7IQYcvUBJuGgp6gzmL-7" value="Adresse mail" style="strokeWidth=1;shadow=0;dashed=0;align=center;html=1;shape=mxgraph.mockup.text.textBox;fontColor=#666666;align=left;fontSize=17;spacingLeft=4;spacingTop=-3;whiteSpace=wrap;strokeColor=#000000;mainText=;fillColor=#FFFFFF;" parent="4EYe7IXE-JR7Fc2so7gF-2" vertex="1">
          <mxGeometry x="682.5" y="580" width="285" height="50" as="geometry" />
        </mxCell>
        <mxCell id="bM7IQYcvUBJuGgp6gzmL-8" value="Suivant" style="strokeWidth=1;shadow=0;dashed=0;align=center;html=1;shape=mxgraph.mockup.buttons.button;strokeColor=#666666;fontColor=#ffffff;mainText=;buttonStyle=round;fontSize=17;fontStyle=1;fillColor=#008cff;whiteSpace=wrap;" parent="4EYe7IXE-JR7Fc2so7gF-2" vertex="1">
          <mxGeometry x="908.75" y="680" width="150" height="40" as="geometry" />
        </mxCell>
        <mxCell id="bM7IQYcvUBJuGgp6gzmL-9" value="&lt;font size=&quot;1&quot; color=&quot;#696969&quot; face=&quot;Verdana&quot;&gt;&lt;span style=&quot;caret-color: rgb(161, 161, 161); font-size: 15px;&quot;&gt;Essayer une autre méthode&lt;/span&gt;&lt;/font&gt;" style="text;strokeColor=none;align=center;fillColor=none;html=1;verticalAlign=middle;whiteSpace=wrap;rounded=0;" parent="4EYe7IXE-JR7Fc2so7gF-2" vertex="1">
          <mxGeometry x="580" y="640" width="237.5" height="30" as="geometry" />
        </mxCell>
        <mxCell id="bM7IQYcvUBJuGgp6gzmL-17" value="" style="line;strokeWidth=2;html=1;strokeColor=#000000;" parent="4EYe7IXE-JR7Fc2so7gF-2" vertex="1">
          <mxGeometry x="559.38" y="760" width="530" height="10" as="geometry" />
        </mxCell>
        <mxCell id="bM7IQYcvUBJuGgp6gzmL-18" value="Retour" style="strokeWidth=1;shadow=0;dashed=0;align=center;html=1;shape=mxgraph.mockup.buttons.button;strokeColor=#666666;fontColor=#ffffff;mainText=;buttonStyle=round;fontSize=17;fontStyle=1;fillColor=#008cff;whiteSpace=wrap;" parent="4EYe7IXE-JR7Fc2so7gF-2" vertex="1">
          <mxGeometry x="750.01" y="800" width="150" height="40" as="geometry" />
        </mxCell>
      </root>
    </mxGraphModel>
  </diagram>
</mxfile>
